Call Me Fitz | s02 e06 | Bring Me The Feet Of Dexter Laine

This episode first aired on HBO Canada on 23 October 2011.

After the untimely death of Dexter Laine, there’s only one thing left for Fitz to do – find a way to profit from his hero’s demise. Little does Fitz know, Dexter’s dismembered feet will help solve the mystery of Dot Foxley once and for all... But who is the shadowy figure?

Cast
Jason Priestley	 ...	Richard Fitzpatrick
Ernie Grunwald	 ...	Larry
Tracy Dawson     ...    Meghan Fitzpatrick
Donavon Stinson  ...    Josh McTaggart
Amy Sloan        ...	Dot Foxley
Peter MacNeill   ...    Ken Fitzpatrick


General
Complete name                    : Call.Me.Fitz.s02e06.Bring.Me.The.Feet.Of.Dexter.Laine.WS.XviD-jAh.avi
Format                           : AVI
Format/Info                      : Audio Video Interleave
File size                        : 233 MiB
Duration                         : 26mn 5s
Overall bit rate mode            : Variable
Overall bit rate                 : 1 249 Kbps
Writing application              : VirtualDubMod 1.5.4.1 (build 2178/release)
Writing library                  : VirtualDubMod build 2178/release

Video
ID                               : 0
Format                           : MPEG-4 Visual
Format profile                   : Simple@L3
Format settings, BVOP            : No
Format settings, QPel            : No
Format settings, GMC             : No warppoints
Format settings, Matrix          : Default (H.263)
Codec ID                         : XVID
Codec ID/Hint                    : XviD
Duration                         : 26mn 5s
Bit rate                         : 1 125 Kbps
Width                            : 624 pixels
Height                           : 352 pixels
Display aspect ratio             : 16:9
Frame rate                       : 23.976 fps
Color space                      : YUV
Chroma subsampling               : 4:2:0
Bit depth                        : 8 bits
Scan type                        : Progressive
Compression mode                 : Lossy
Bits/(Pixel*Frame)               : 0.214
Stream size                      : 210 MiB (90%)
Writing library                  : XviD 1.2.1 (UTC 2008-12-04)

Audio
ID                               : 1
Format                           : MPEG Audio
Format version                   : Version 1
Format profile                   : Layer 3
Mode                             : Joint stereo
Codec ID                         : 55
Codec ID/Hint                    : MP3
Duration                         : 26mn 5s
Bit rate mode                    : Variable
Bit rate                         : 112 Kbps
Nominal bit rate                 : 128 Kbps
Channel(s)                       : 2 channels
Sampling rate                    : 48.0 KHz
Compression mode                 : Lossy
Stream size                      : 20.8 MiB (9%)
Alignment                        : Aligned on interleaves
Interleave, duration             : 24 ms (0.58 video frame)
Interleave, preload duration     : 537 ms
Writing library                  : LAME3.98r
Encoding settings                : -m j -V 4 -q 2 -lowpass 17 --abr 128
